# AST/ASF file generated using VICON BodyLanguage
# -----------------------------------------------
:version 1.10
:name VICON
:units
  mass 1.0
  length 0.45
  angle deg
:documentation
   .ast/.asf automatically generated from VICON data using
   VICON BodyBuilder and BodyLanguage model FoxedUp or BRILLIANT.MOD
:root
   order TX TY TZ RX RY RZ
   axis XYZ
   position 0 0 0  
   orientation 0 0 0 
:bonedata
  begin
     id 1 
     name lhipjoint
     direction 0.602128 -0.715006 0.355257 
     length 2.21237 
     axis 0 0 0  XYZ
  end
  begin
     id 2 
     name lfemur
     direction 0.34202 -0.939693 0  
     length 6.71649  
     axis 0 0 20  XYZ
    dof rx ry rz
    limits (-160.0 20.0)
           (-70.0 70.0)
           (-60.0 70.0)
  end
  begin
     id 3 
     name ltibia
     direction 0.34202 -0.939693 0   
     length 6.97123   
     axis 0 0 20   XYZ
    dof rx
    limits (-10.0 170.0)
  end
  begin
     id 4 
     name lfoot
     direction 0.0655697 -0.180151 0.981451   
     length 1.80924   
     axis -90 7.62852e-016 20   XYZ
    dof rx rz
    limits (-45.0 90.0)
           (-70.0 20.0)
  end
  begin
     id 5 
     name ltoes
     direction 1.53545e-011 -4.21827e-011 1   
     length 0.916331   
     axis -90 7.62852e-016 20   XYZ
    dof rx
    limits (-90.0 20.0)
  end
  begin
     id 6 
     name rhipjoint
     direction -0.625414 -0.698792 0.347201   
     length 2.2637  
     axis 0 0 0  XYZ 
  end
  begin
     id 7 
     name rfemur
     direction -0.34202 -0.939693 0   
     length 7.07595   
     axis 0 0 -20   XYZ
    dof rx ry rz
    limits (-160.0 20.0)
           (-70.0 70.0)
           (-70.0 60.0)
  end
  begin
     id 8 
     name rtibia
     direction -0.34202 -0.939693 0   
     length 7.22924   
     axis 0 0 -20   XYZ
    dof rx
    limits (-10.0 170.0)
 end
 begin
     id 9 
     name rfoot
     direction -0.0766747 -0.210662 0.974547   
     length 1.98482  
     axis -90 -7.62852e-016 -20   XYZ
    dof rx rz
    limits (-45.0 90.0)
           (-20.0 70.0)
  end
  begin
     id 10 
     name rtoes
     direction -1.53532e-011 -4.21867e-011 1   
     length 0.999842   
     axis -90 -7.62852e-016 -20   XYZ
    dof rx
    limits (-90.0 20.0)
  end
  begin
     id 11 
     name lowerback
     direction -0.0224668 0.997354 -0.0691422   
     length 2.09945   
     axis 0 0 0   XYZ
    dof rx ry rz
    limits (-20.0 45.0)
           (-30.0 30.0)
           (-30.0 30.0)
  end
  begin
     id 12 
     name upperback
     direction 0.0134698 0.998451 -0.0539888   
     length 2.09758   
     axis 0 0 0   XYZ
    dof rx ry rz
    limits (-20.0 45.0)
           (-30.0 30.0)
           (-30.0 30.0)
  end
  begin
     id 13 
     name thorax
     direction 0.0241905 0.99948 -0.0213333   
     length 2.10428   
     axis 0 0 0   XYZ
    dof rx ry rz
    limits (-20.0 45.0)
           (-30.0 30.0)
           (-30.0 30.0)
  end
  begin
     id 14 
     name lowerneck
     direction -0.00866847 0.995978 0.0891737   
     length 1.3959   
     axis 0 0 0   XYZ
    dof rx ry rz
    limits (-20.0 45.0)
           (-30.0 30.0)
           (-30.0 30.0)
  end
  begin
     id 15 
     name upperneck
     direction 0.0680679 0.992203 0.104404   
     length 1.39452   
     axis 0 0 0   XYZ
    dof rx ry rz
    limits (-20.0 45.0)
           (-30.0 30.0)
           (-30.0 30.0)
  end
  begin
     id 16
     name head
     direction 0.0242216 0.999358 0.0264054  
     length 1.40433  
     axis 0 0 0   XYZ
    dof rx ry rz
    limits (-20.0 45.0)
           (-30.0 30.0)
           (-30.0 30.0)
  end
  begin
     id 17 
     name lclavicle
     direction 0.929368 0.362991 -0.0671771  
     length 3.04887  
     axis 0 0 0   XYZ
    dof ry rz
    limits (-20.0 10.0)
           (0.0 20.0)
  end
  begin
     id 18 
     name lhumerus
     direction 1 -4.48967e-011 -7.13741e-028   
     length 4.77195   
     axis -180 -30 -90   XYZ
    dof rx ry rz
    limits (-60.0 90.0)
           (-90.0 90.0)
           (-90.0 90.0)
  end
  begin
     id 19
     name lradius
     direction 1 -4.48977e-011 3.60404e-027   
     length 2.98444   
     axis -180 -30 -90   XYZ
    dof rx
    limits (-10.0 170.0)
  end
  begin
     id 20
     name lwrist
     direction 1 -4.48997e-011 7.54877e-027   
     length 1.49222   
     axis -7.18178e-015 90 90   XYZ
    dof ry
    limits (-180.0 0.0)
 end
  begin
     id 21 
     name lhand
     direction 1 -4.489e-011 1.51105e-026   
     length 0.992285   
     axis -9.63605e-015 90 90   XYZ
    dof rx rz
    limits (-90.0 90.0)
           (-45.0 45.0)
  end
  begin
     id 22 
     name lfingers
     direction 1 -4.48998e-011 3.01948e-026   
     length 0.800006   
     axis -1.92718e-014 90 90   XYZ
    dof rx
    limits (0.0 90.0)
  end
  begin
     id 23
     name lthumb
     direction 0.707107 -6.34881e-011 0.707107   
     length 1.14865   
     axis -90 45 -3.53137e-014   XYZ
    dof rx rz
    limits (-45.0 45.0)
           (-45.0 45.0)
  end
  begin
     id 24 
     name rclavicle
     direction -0.945672 0.324529 0.0196374   
     length 3.4236  
     axis 0 0 0   XYZ 
    dof ry rz
    limits (-10.0 20.0)
           (-20.0 0.0)
  end
  begin
     id 25 
     name rhumerus
     direction -1 -4.4896e-011 1.02757e-029  
     length 4.62052   
     axis -180 30 90   XYZ
    dof rx ry rz
    limits (-90.0 60.0)
           (-90.0 90.0)
           (-90.0 90.0)
  end
  begin
     id 26 
     name rradius
     direction -1 -4.48982e-011 3.85962e-027   
     length 2.95332   
     axis -180 30 90   XYZ
    dof rx
    limits (-10.0 170.0)
  end
  begin
     id 27 
     name rwrist
     direction -1 -4.48961e-011 7.55118e-027   
     length 1.47666   
     axis -7.18178e-015 -90 -90   XYZ
    dof ry
    limits (-180.0 0.0)
  end
  begin
     id 28
     name rhand
     direction -1 -4.48984e-011 1.50994e-026   
     length 0.990956   
     axis -9.63605e-015 -90 -90   XYZ
    dof rx rz
    limits (-90.0 90.0)
           (-45.0 45.0)
  end
  begin
     id 29
     name rfingers
     direction -1 -4.4892e-011 3.02158e-026   
     length 0.798934   
     axis -1.92718e-014 -90 -90   XYZ
    dof rx
    limits (0.0 90.0)
  end
  begin
     id 30
     name rthumb
     direction -0.707107 -6.34916e-011 0.707107   
     length 1.14711   
     axis -90 -45 3.53137e-014   XYZ
    dof rx rz
    limits (-45.0 45.0)
           (-45.0 45.0)
  end
:hierarchy
  begin
    root lhipjoint rhipjoint lowerback
    lhipjoint lfemur
    lfemur ltibia
    ltibia lfoot
    lfoot ltoes
    rhipjoint rfemur
    rfemur rtibia
    rtibia rfoot
    rfoot rtoes
    lowerback upperback
    upperback thorax
    thorax lowerneck lclavicle rclavicle
    lowerneck upperneck
    upperneck head
    lclavicle lhumerus
    lhumerus lradius
    lradius lwrist
    lwrist lhand lthumb
    lhand lfingers
    rclavicle rhumerus
    rhumerus rradius
    rradius rwrist
    rwrist rhand rthumb
    rhand rfingers
  end

#!OML:ASF H:\ManfredObstacles\Project 1\Capture day 1\Session 1\Male.ASF
:FULLY-SPECIFIED
:DEGREES
72
root 0.00494541 16.0815 36.8694 -169.523 -11.965 -178.515
lowerback -7.72789 -2.46461 -1.62624
upperback 1.65616 -3.24554 1.72566
thorax 6.26246 -1.69844 2.29047
lowerneck 2.38708 -3.66828 -5.54843
upperneck -12.8061 -4.77246 10.5507
head -3.77863 -2.91496 4.34734
rclavicle -9.59136e-015 1.02126e-014
rhumerus -36.5274 -31.1603 -71.8
rradius 24.3235
rwrist 38.7091
rhand -4.04342 -6.63743
rfingers 7.12502
rthumb 21.7123 -35.4398
lclavicle -9.59136e-015 1.02126e-014
lhumerus -23.9868 19.2992 84.2059
lradius 13.5456
lwrist -39.7779
lhand -9.06292 8.88406
lfingers 7.12502
lthumb 16.8859 38.1699
rfemur -34.0261 -2.56593 18.1161
rtibia 25.8899
rfoot -8.78937 3.94575
rtoes 0.706026
lfemur 2.35527 -7.19202 -19.1537
ltibia -2.38542e-014
lfoot -8.16989 -5.24108
ltoes 5.7313
73
root 0.0129594 16.0777 36.8606 -169.403 -12.0497 -178.399
lowerback -7.63469 -2.49863 -1.57848
upperback 1.67502 -3.30982 1.87878
thorax 6.23975 -1.73339 2.41845
lowerneck 2.21834 -3.60672 -5.6973
upperneck -12.7396 -4.69531 10.5522
head -3.73264 -2.86552 4.36395
rclavicle 9.0447e-015 -2.78299e-015
rhumerus -36.3893 -31.1876 -71.6339
rradius 24.1107
rwrist 38.9804
rhand -4.15702 -6.68946
rfingers 7.12502
rthumb 21.6032 -35.5044
lclavicle 9.0447e-015 -2.78299e-015
lhumerus -23.684 18.4959 84.8212
lradius 13.6809
lwrist -39.2415
lhand -8.95896 9.38557
lfingers 7.12502
lthumb 16.9859 38.6629
rfemur -34.3074 -2.5739 18.2927
rtibia 26.2161
rfoot -9.05944 3.89672
rtoes 0.736322
lfemur 2.2271 -7.2528 -18.979
ltibia -5.40694e-014
lfoot -8.33551 -5.23054
ltoes 4.53386
74
root 0.0218712 16.0802 36.8455 -169.311 -12.1059 -178.396
lowerback -7.48008 -2.52019 -1.61695
upperback 1.65417 -3.34301 1.9658
thorax 6.13938 -1.75318 2.53331
lowerneck 2.23758 -3.56524 -5.78453
upperneck -12.7376 -4.64109 10.5532
head -3.73752 -2.83379 4.37788
rclavicle 4.43911e-014 -2.27608e-014
rhumerus -36.4623 -31.2174 -71.4363
rradius 24.0051
rwrist 39.1486
rhand -4.21142 -6.71329
rfingers 7.12502
rthumb 21.5509 -35.5342
lclavicle 4.43911e-014 -2.27608e-014
lhumerus -23.5172 17.965 85.2031
lradius 13.7528
lwrist -39.1523
lhand -8.98114 9.38812
lfingers 7.12502
lthumb 16.9646 38.6673
rfemur -34.5384 -2.66301 18.3879
rtibia 26.6389
rfoot -9.22962 4.00773
rtoes 0.835741
lfemur 2.11196 -7.30847 -18.8771
ltibia -9.54166e-015
lfoot -8.35227 -5.34069
ltoes 5.4556
75
root 0.0302504 16.0773 36.8229 -169.239 -12.108 -178.428
lowerback -7.35365 -2.50216 -1.59255
upperback 1.66881 -3.32184 1.95694
thorax 6.07938 -1.74156 2.51795
lowerneck 2.26137 -3.56649 -5.73507
upperneck -12.8054 -4.63549 10.6491
head -3.7606 -2.84344 4.40214
rclavicle -2.74944e-014 1.74931e-014
rhumerus -36.5619 -31.2116 -71.3954
rradius 24.0534
rwrist 39.1121
rhand -4.0742 -6.74822
rfingers 7.12502
rthumb 21.6827 -35.554
lclavicle -2.74944e-014 1.74931e-014
lhumerus -23.3338 17.1138 85.6129
lradius 13.9533
lwrist -38.7616
lhand -9.07675 9.36578
lfingers 7.12502
lthumb 16.8726 38.6528
rfemur -34.7602 -2.97229 18.5436
rtibia 27.1312
rfoot -9.48216 4.45235
rtoes 1.05721
lfemur 2.11042 -7.31483 -18.8571
ltibia -4.13472e-014
lfoot -8.44317 -5.35928
ltoes 5.50218
76
root 0.0385191 16.0697 36.7934 -169.121 -11.9768 -178.361
lowerback -7.33032 -2.4329 -1.41952
upperback 1.68379 -3.24449 1.9267
thorax 6.06512 -1.69664 2.39994
lowerneck 2.14834 -3.56434 -5.66713
upperneck -12.7294 -4.62188 10.7824
head -3.7174 -2.84587 4.42665
rclavicle -1.60146e-014 1.17283e-014
rhumerus -36.6408 -31.1486 -71.4554
rradius 24.1568
rwrist 38.9625
rhand -3.93185 -6.74379
rfingers 7.12502
rthumb 21.8194 -35.5337
lclavicle -1.60146e-014 1.17283e-014
lhumerus -23.1273 16.5457 85.8822
lradius 14.0994
lwrist -38.4985
lhand -9.02465 9.16043
lfingers 7.12502
lthumb 16.9227 38.4432
rfemur -35.0896 -3.11505 18.7725
rtibia 27.6799
rfoot -9.94148 4.82847
rtoes 1.26356
lfemur 2.1726 -7.1669 -18.8059
ltibia -6.36111e-015
lfoot -8.78046 -5.16935
ltoes 2.54384
77
root 0.0501114 16.0665 36.7544 -168.983 -11.8375 -178.251
lowerback -7.35647 -2.38221 -1.2666
upperback 1.65741 -3.19311 1.94539
thorax 6.04159 -1.66621 2.33979
lowerneck 2.10113 -3.56466 -5.51582
upperneck -12.5838 -4.6204 10.6859
head -3.67287 -2.83969 4.3658
rclavicle 1.42007e-014 -2.54444e-014
rhumerus -36.8678 -31.4288 -71.2257
rradius 24.1305
rwrist 39.1667
rhand -3.99064 -6.62575
rfingers 7.12502
rthumb 21.7629 -35.4223
lclavicle 1.42007e-014 -2.54444e-014
lhumerus -23.0135 15.755 86.2082
lradius 14.2778
lwrist -37.8199
lhand -8.86467 8.88241
lfingers 7.12502
lthumb 17.0767 38.1519
rfemur -35.4448 -3.05427 19.0008
rtibia 28.2957
rfoot -10.5528 4.98553
rtoes 1.30695
lfemur 2.22755 -7.00316 -18.6596
ltibia -5.40694e-014
lfoot -9.13151 -5.0806
ltoes 0.271656
78
root 0.0671068 16.0653 36.7085 -168.873 -11.8299 -178.173
lowerback -7.36505 -2.42072 -1.24149
upperback 1.64611 -3.25444 2.03378
thorax 6.042 -1.69832 2.40994
lowerneck 2.15002 -3.53237 -5.38713
upperneck -12.643 -4.58354 10.5103
head -3.71082 -2.8199 4.29241
rclavicle 2.87741e-014 5.66536e-015
rhumerus -36.9878 -31.8702 -70.8718
rradius 23.9462
rwrist 39.6397
rhand -4.07561 -6.46921
rfingers 7.12502
rthumb 21.6814 -35.2752
lclavicle 2.87741e-014 5.66536e-015
lhumerus -22.9423 14.6406 86.7166
lradius 14.6248
lwrist -36.6369
lhand -8.67314 8.78517
lfingers 7.12502
lthumb 17.2611 38.0386
rfemur -35.7269 -3.00778 19.2087
rtibia 28.9163
rfoot -11.1538 5.06428
rtoes 0.938465
lfemur 2.27829 -6.9766 -18.4785
ltibia -1.59028e-015
lfoot -9.39784 -5.0654
ltoes -0.741864
79
root 0.0862787 16.0614 36.657 -168.772 -11.7766 -178.233
lowerback -7.33107 -2.48429 -1.30531
upperback 1.64498 -3.33367 2.04211
thorax 6.03024 -1.73973 2.44555
lowerneck 2.11849 -3.4696 -5.42244
upperneck -12.669 -4.49854 10.5769
head -3.71735 -2.78269 4.31702
rclavicle 2.47487e-014 1.68967e-015
rhumerus -37.0206 -31.934 -70.8173
rradius 23.863
rwrist 39.8199
rhand -4.09149 -6.33647
rfingers 7.12502
rthumb 21.6661 -35.1442
lclavicle 2.47487e-014 1.68967e-015
lhumerus -22.8642 13.6507 87.1655
lradius 14.9593
lwrist -35.5366
lhand -8.59216 8.87976
lfingers 7.12502
lthumb 17.339 38.1263
rfemur -35.9284 -3.00228 19.2769
rtibia 29.4753
rfoot -11.6651 5.27482
rtoes 1.115
lfemur 2.38105 -6.93194 -18.4532
ltibia -1.43125e-014
lfoot -9.58106 -4.94927
ltoes -1.36142
80
root 0.107437 16.0588 36.5951 -168.714 -11.6935 -178.284
lowerback -7.24897 -2.57565 -1.46175
upperback 1.61013 -3.44815 2.13779
thorax 5.9693 -1.80393 2.62261
lowerneck 2.01754 -3.40662 -5.61213
upperneck -12.4845 -4.41538 10.6423
head -3.64514 -2.72735 4.35861
rclavicle 2.17918e-014 -2.98177e-016
rhumerus -37.07 -31.4056 -70.8501
rradius 23.9529
rwrist 39.4285
rhand -4.09633 -6.33822
rfingers 7.12502
rthumb 21.6615 -35.1465
lclavicle 2.17918e-014 -2.98177e-016
lhumerus -22.8292 13.0812 87.6496
lradius 15.1876
lwrist -34.6582
lhand -8.65053 9.10412
lfingers 7.12502
lthumb 17.2828 38.3556
rfemur -36.0168 -2.98647 19.359
rtibia 29.9918
rfoot -12.1464 5.5655
rtoes 2.14318
lfemur 2.54569 -6.85764 -18.414
ltibia -4.6118e-014
lfoot -9.66623 -4.81371
ltoes -1.52118
81
root 0.133427 16.0572 36.5259 -168.658 -11.7239 -178.167
lowerback -7.22653 -2.69196 -1.55707
upperback 1.58649 -3.61316 2.35573
thorax 5.96313 -1.89564 2.88403
lowerneck 1.97479 -3.33489 -5.72688
upperneck -12.4158 -4.32836 10.5455
head -3.62478 -2.66897 4.34252
rclavicle 3.10601e-015 1.19271e-015
rhumerus -37.0189 -30.8154 -70.8428
rradius 24.0329
rwrist 38.8582
rhand -4.1056 -6.3779
rfingers 7.12502
rthumb 21.6525 -35.1872
lclavicle 3.10601e-015 1.19271e-015
lhumerus -22.75 12.6464 88.1534
lradius 15.4226
lwrist -33.801
lhand -8.57674 9.1312
lfingers 7.12502
lthumb 17.3538 38.3765
rfemur -36.0826 -2.90174 19.6267
rtibia 30.4463
rfoot -12.593 5.66514
rtoes 2.66825
lfemur 2.67045 -6.86281 -18.1485
ltibia -2.8625e-014
lfoot -9.68898 -4.63788
ltoes -3.19468
82
root 0.161587 16.0512 36.4522 -168.553 -11.7504 -178.131
lowerback -7.26813 -2.76705 -1.49474
upperback 1.58048 -3.71868 2.35025
thorax 5.98302 -1.94533 2.82786
lowerneck 1.97943 -3.29809 -5.62421
upperneck -12.4885 -4.27933 10.5329
head -3.65437 -2.65397 4.32294
rclavicle -2.41026e-014 8.54774e-015
rhumerus -37.1209 -30.7915 -70.8992
rradius 24.0754
rwrist 38.7144
rhand -4.19662 -6.39645
rfingers 7.12502
rthumb 21.5651 -35.2158
lclavicle -2.41026e-014 8.54774e-015
lhumerus -22.6689 11.5297 88.4958
lradius 15.8079
lwrist -32.4067
lhand -8.39393 9.21161
lfingers 7.12502
lthumb 17.5298 38.4413
rfemur -36.1524 -2.805 19.8224
rtibia 30.8072
rfoot -12.9001 5.703
rtoes 2.9389
lfemur 2.82489 -6.87747 -17.9605
ltibia -4.77083e-014
lfoot -9.63133 -4.48936
ltoes -5.4038
83
root 0.190965 16.0477 36.3726 -168.465 -11.7405 -178.05
lowerback -7.25405 -2.80125 -1.26796
upperback 1.52018 -3.77833 2.27074
thorax 5.89419 -1.96318 2.61185
lowerneck 2.00366 -3.30132 -5.52269
upperneck -12.4797 -4.276 10.6307
head -3.65565 -2.66489 4.33679
rclavicle 4.17448e-015 6.65929e-015
rhumerus -37.5368 -31.1507 -70.7794
rradius 24.141
rwrist 38.9356
rhand -4.28498 -6.26742
rfingers 7.12502
rthumb 21.4803 -35.0965
lclavicle 4.17448e-015 6.65929e-015
lhumerus -22.7054 10.1025 88.7831
lradius 16.2216
lwrist -30.8806
lhand -8.18595 9.77397
lfingers 7.12502
lthumb 17.7299 38.9857
rfemur -36.1509 -2.6487 20.0637
rtibia 31.0957
rfoot -13.1296 5.70529
rtoes 3.69303
lfemur 3.01621 -6.84803 -17.7151
ltibia -1.90833e-014
lfoot -9.31127 -4.41624
ltoes -4.55005
84
root 0.223826 16.0498 36.2854 -168.407 -11.7891 -177.813
lowerback -7.27667 -2.83814 -0.984602
upperback 1.45478 -3.85817 2.31408
thorax 5.8267 -1.99383 2.48849
lowerneck 2.02658 -3.30934 -5.47112
upperneck -12.3658 -4.28472 10.6092
head -3.62651 -2.66538 4.31893
rclavicle 2.29845e-014 -5.1684e-015
rhumerus -37.9597 -31.3752 -70.5725
rradius 24.2496
rwrist 38.8825
rhand -4.19024 -6.09738
rfingers 7.12502
rthumb 21.5713 -34.916
lclavicle 2.29845e-014 -5.1684e-015
lhumerus -22.7012 8.93323 89.095
lradius 16.4874
lwrist -29.8247
lhand -8.10033 10.1522
lfingers 7.12502
lthumb 17.8123 39.3564
rfemur -36.0953 -2.41659 20.4572
rtibia 31.3622
rfoot -13.478 5.56414
rtoes 4.35648
lfemur 3.19408 -6.84656 -17.2682
ltibia -4.13472e-014
lfoot -8.9038 -4.24387
ltoes -3.69673
85
root 0.261045 16.0507 36.1927 -168.367 -11.8199 -177.678
lowerback -7.34199 -2.92717 -0.891225
upperback 1.44283 -3.99527 2.41258
thorax 5.85988 -2.06181 2.5184
lowerneck 1.99582 -3.28891 -5.59867
upperneck -12.246 -4.2651 10.5301
head -3.58635 -2.6382 4.31072
rclavicle 2.13197e-014 -3.67752e-015
rhumerus -38.1233 -31.333 -70.4532
rradius 24.2722
rwrist 38.6891
rhand -4.01947 -6.25071
rfingers 7.12502
rthumb 21.7353 -35.0504
lclavicle 2.13197e-014 -3.67752e-015
lhumerus -22.5752 8.80671 89.2035
lradius 16.4826
lwrist -29.7206
lhand -8.22043 9.81076
lfingers 7.12502
lthumb 17.6967 39.0254
rfemur -35.9915 -2.14111 20.7352
rtibia 31.6442
rfoot -13.9139 5.37191
rtoes 4.63556
lfemur 3.48902 -6.84803 -16.9432
ltibia -3.49861e-014
lfoot -8.63786 -3.93038
ltoes -6.32913
86
root 0.302707 16.0503 36.0963 -168.415 -11.7625 -177.664
lowerback -7.30204 -3.04594 -0.981496
upperback 1.4743 -4.15521 2.51655
thorax 5.89423 -2.14783 2.65789
lowerneck 1.93521 -3.21359 -5.82567
upperneck -12.2023 -4.1773 10.4503
head -3.56738 -2.57634 4.31895
rclavicle 4.01297e-014 -8.84592e-015
rhumerus -38.1511 -31.1445 -70.4051
rradius 24.2509
rwrist 38.6567
rhand -3.93988 -6.55353
rfingers 7.12502
rthumb 21.8117 -35.3444
lclavicle 4.01297e-014 -8.84592e-015
lhumerus -22.3861 9.62116 89.0695
lradius 16.2867
lwrist -30.2824
lhand -8.24395 9.25828
lfingers 7.12502
lthumb 17.6741 38.475
rfemur -35.7624 -1.83247 20.902
rtibia 31.9397
rfoot -14.3874 5.20323
rtoes 4.51046
lfemur 3.9077 -6.79511 -16.7297
ltibia 6.67916e-014
lfoot -8.22904 -3.81437
ltoes -6.98695
